PathFileType	4	(X/Y/Z)	C:\Users\Basilio\Documents\Thesis Gigler\squatting_fais\c3dfiles\076\SLS_front_pre2\markers_experimental.trc
DataRate	CameraRate	NumFrames	NumMarkers	Units	OrigDataRate	OrigDataStartFrame	OrigNumFrames
200.000000	200.000000	4	61	mm	200.000000	797	1595
Frame#	Time	FHD			LBHD			RBHD			C7			T10			CLAV			LSHO			LUUPA			LMUPA			LDUPA			LLEP			LMEP			LRAD			LUL			LRFIN			RSHO			RUPA1			RMUPA			RDUPA			RLEP			RMEP			RRAD			RUL			RUFIN			LASI			RASI			USACR			LSACR			RSACR			LTHI1			LTHI2			LTHI3			LTHI4			LLFC			LMFC			LTIB1			LTIB2			LTIB3			LTIB4			LLMAL			LMMAL			LHEE			LMT1			LMT2			LMT5			RTHI			RTHI2			RTHI3			RTHI4			RLFC			RMFC			RTIB1			RTIB2			RTIB3			RTIB4			RLMAL			RMMAL			RHEE			RMT1			RMT2			RMT5			
		X1	Y1	Z1	X2	Y2	Z2	X3	Y3	Z3	X4	Y4	Z4	X5	Y5	Z5	X6	Y6	Z6	X7	Y7	Z7	X8	Y8	Z8	X9	Y9	Z9	X10	Y10	Z10	X11	Y11	Z11	X12	Y12	Z12	X13	Y13	Z13	X14	Y14	Z14	X15	Y15	Z15	X16	Y16	Z16	X17	Y17	Z17	X18	Y18	Z18	X19	Y19	Z19	X20	Y20	Z20	X21	Y21	Z21	X22	Y22	Z22	X23	Y23	Z23	X24	Y24	Z24	X25	Y25	Z25	X26	Y26	Z26	X27	Y27	Z27	X28	Y28	Z28	X29	Y29	Z29	X30	Y30	Z30	X31	Y31	Z31	X32	Y32	Z32	X33	Y33	Z33	X34	Y34	Z34	X35	Y35	Z35	X36	Y36	Z36	X37	Y37	Z37	X38	Y38	Z38	X39	Y39	Z39	X40	Y40	Z40	X41	Y41	Z41	X42	Y42	Z42	X43	Y43	Z43	X44	Y44	Z44	X45	Y45	Z45	X46	Y46	Z46	X47	Y47	Z47	X48	Y48	Z48	X49	Y49	Z49	X50	Y50	Z50	X51	Y51	Z51	X52	Y52	Z52	X53	Y53	Z53	X54	Y54	Z54	X55	Y55	Z55	X56	Y56	Z56	X57	Y57	Z57	X58	Y58	Z58	X59	Y59	Z59	X60	Y60	Z60	X61	Y61	Z61	

798	3.985	-259.5303955078126	1438.622436523438	-1058.629028320313	-393.3057556152345	1365.774169921875	-1162.013305664063	-387.425262451172	1372.10888671875	-1010.276733398438	-443.4337158203126	1259.72802734375	-1073.70458984375	-544.6828002929689	965.8218383789065	-1041.834594726563	-323.7501220703126	1171.45703125	-1080.106811523438	-376.0289611816407	1205.436767578125	-1235.310791015625	-231.732894897461	1166.389038085938	-1307.070678710938	-201.0279998779297	1186.444946289063	-1274.15576171875	-165.1532745361328	1164.661743164063	-1319.356323242188	-113.4813003540039	1148.317016601563	-1328.990356445313	-103.8299026489258	1089.789184570313	-1277.11669921875	133.3969268798828	1184.574340820313	-1288.263916015625	126.9530029296875	1182.550659179688	-1352.780639648438	214.6207885742188	1205.806396484375	-1293.567626953125	-350.8792724609376	1216.182006835938	-927.0061645507815	-212.976058959961	1168.138061523438	-840.5133056640627	-184.1152648925782	1198.329223632813	-865.814147949219	-142.8645477294922	1161.309326171875	-839.6341552734377	-76.92903900146486	1164.761474609375	-847.5407714843752	-74.56961059570314	1114.503784179688	-903.519958496094	165.8369598388672	1178.331909179688	-899.629089355469	157.6380462646485	1176.413696289063	-833.989929199219	240.5186157226563	1196.043823242188	-889.5123291015627	-419.4769592285157	776.9368286132815	-1148.443115234375	-404.4405822753907	786.9968872070315	-935.2680664062502	-574.4297485351564	850.010192871094	-1028.867553710938	-586.3030395507814	821.4119262695315	-1056.722412109375	-582.6382446289064	819.223083496094	-1000.298095703125	-431.8185119628907	643.9247436523439	-1220.918334960938	-355.0417480468751	608.6561279296876	-1227.09716796875	-318.8833312988282	641.1965942382814	-1213.282470703125	-338.3711242675782	549.9768066406251	-1217.594116210938	-232.6059265136719	435.7523498535157	-1193.496337890625	-206.9337921142579	452.4440002441407	-1083.190673828125	-225.774887084961	309.8161621093751	-1093.753051757813	-270.9771423339844	253.6909179687501	-1144.167358398438	-240.4137725830079	255.1888732910157	-1107.835205078125	-283.4499511718751	202.9990692138672	-1059.213256835938	-384.5140380859376	99.72206115722659	-1084.883422851563	-349.1404724121094	125.8964462280274	-1009.115051269531	-441.5960998535157	95.55038452148439	-1028.340698242188	-239.0163574218751	62.14464569091798	-1011.458557128906	-233.2489776611329	53.0416603088379	-1049.115844726563	-257.4945678710938	39.65380859375001	-1096.9892578125	-328.7123718261719	597.4808349609376	-859.1967773437502	-262.3236389160157	595.7206420898439	-869.0662841796877	-246.6498260498047	622.7918090820314	-884.3899536132815	-216.6405487060547	526.7648925781251	-882.3638916015627	-171.6595611572266	489.7864990234376	-888.1128540039065	-162.5552520751953	492.7545166015626	-1005.36572265625	-43.67514419555665	429.2914123535157	-911.2611083984377	-28.14021873474122	327.2033691406251	-874.4412841796877	2.962650299072266	358.0664062500001	-892.2053222656252	42.70986557006837	333.8261718750001	-926.5910644531252	112.2593612670899	196.2780303955079	-884.3406982421877	107.3983688354492	214.2083740234376	-968.8870239257815	97.85382080078128	130.5268859863282	-918.836364746094	230.2076110839844	278.0938110351563	-968.540954589844	231.0354003906251	296.0660095214844	-926.8138427734377	233.4728393554688	270.2625732421876	-870.924743652344	
799	3.99	-259.5374450683594	1437.951782226563	-1058.72314453125	-393.0522766113282	1364.98828125	-1161.955810546875	-387.3876342773439	1371.335571289063	-1010.32861328125	-443.374969482422	1259.097900390625	-1073.75146484375	-544.8209838867189	965.203552246094	-1041.736450195313	-323.6964416503907	1170.845092773438	-1080.084594726563	-376.1296386718751	1204.770263671875	-1235.324951171875	-231.7122497558594	1165.7138671875	-1307.047973632813	-201.0514678955079	1185.9169921875	-1274.157836914063	-165.2147369384766	1164.236206054688	-1319.654296875	-113.5117340087891	1147.852661132813	-1328.990112304688	-103.8507385253907	1089.320678710938	-1277.124633789063	133.393783569336	1184.364379882813	-1288.22607421875	127.2724609375	1182.5888671875	-1352.852783203125	214.584701538086	1205.42822265625	-1293.543823242188	-350.8298950195313	1215.48828125	-927.0317993164065	-212.8429565429688	1167.584228515625	-840.5179443359377	-183.9497680664063	1197.711547851563	-865.9361572265627	-142.774398803711	1160.64697265625	-839.7774047851565	-76.86141967773439	1164.10595703125	-847.9399414062502	-74.47686004638673	1113.978393554688	-903.799255371094	166.0134735107422	1177.87353515625	-900.0737304687502	157.796630859375	1175.91748046875	-834.2977294921877	240.6155853271485	1195.45556640625	-889.9364013671877	-419.3625488281251	776.2687988281252	-1148.295043945313	-404.7459411621095	786.2128906250002	-935.1412353515627	-574.5041503906251	849.3796997070315	-1028.880493164063	-586.4725341796876	820.7897949218752	-1056.741455078125	-582.7859497070314	818.5070800781252	-1000.2958984375	-431.6822204589845	643.4597167968751	-1220.896362304688	-354.8329162597657	608.4325561523439	-1227.03759765625	-318.9215393066407	640.9545898437501	-1213.171264648438	-338.0830383300782	549.7036132812501	-1217.748779296875	-232.4901275634766	435.7453002929689	-1193.469970703125	-206.6041717529297	452.534393310547	-1083.083251953125	-225.5904693603516	309.6948852539063	-1093.642578125	-270.7895812988282	253.6994323730469	-1144.069213867188	-240.2782135009766	255.0835876464844	-1107.86279296875	-283.3684387207032	202.8358612060547	-1059.187255859375	-384.5982971191407	99.715202331543	-1084.865966796875	-349.1315917968751	125.8721466064453	-1009.104858398438	-441.5414428710939	95.54499816894533	-1028.311401367188	-238.9296264648438	62.27161026000978	-1011.430847167969	-233.0358886718751	53.02148056030275	-1049.010986328125	-257.4802551269532	39.6272201538086	-1096.994750976563	-328.9429626464844	596.6715087890626	-859.193054199219	-262.4255676269532	594.8281250000001	-869.102478027344	-246.7621154785157	622.0676269531251	-884.2376098632815	-216.8299407958985	525.9726562500001	-882.3216552734377	-171.8318786621094	488.8904113769532	-888.1773071289065	-162.677474975586	491.9186096191407	-1005.292724609375	-43.84314727783204	428.5170288085939	-911.187438964844	-28.31691932678223	326.3854064941407	-874.533142089844	2.875633478164673	357.4855957031251	-892.0737915039065	42.5821876525879	333.1480712890626	-926.583923339844	112.2078170776367	195.5578155517579	-884.4109497070315	107.1053543090821	213.7138366699219	-968.8833618164065	97.80691528320315	130.0396118164063	-918.7512207031252	230.3010559082032	277.3505249023438	-968.6910400390627	230.9423217773438	295.3426818847657	-926.961364746094	233.4967346191407	269.7738952636719	-871.052185058594	
800	3.995	-259.3482971191407	1437.153686523438	-1058.761352539063	-393.134246826172	1364.549072265625	-1162.392211914063	-387.3084716796876	1370.622192382813	-1010.435485839844	-443.279022216797	1258.442626953125	-1073.704833984375	-544.8857421875001	964.5712890625002	-1041.599853515625	-323.7752380371094	1170.050659179688	-1080.197998046875	-376.1580810546876	1204.18017578125	-1235.340942382813	-231.5318756103516	1165.186767578125	-1307.078369140625	-201.1188354492188	1185.374755859375	-1274.170776367188	-165.2707977294922	1163.59326171875	-1319.493896484375	-113.4418029785157	1147.378540039063	-1328.997192382813	-103.856071472168	1088.746948242188	-1277.21044921875	133.2803039550782	1183.97802734375	-1288.243774414063	127.2186965942383	1182.173217773438	-1352.896850585938	214.4755401611329	1204.959594726563	-1293.479858398438	-350.6705932617188	1214.807006835938	-927.0098266601565	-212.8036346435547	1166.927001953125	-840.6096191406252	-183.8094329833985	1197.0361328125	-866.026794433594	-142.7061004638672	1160.07080078125	-839.838806152344	-76.77363586425783	1163.400512695313	-848.064880371094	-74.31316375732423	1113.313842773438	-904.0596923828127	166.225082397461	1177.248046875	-900.4024047851565	157.9742279052735	1175.369506835938	-834.639587402344	240.5672149658204	1195.171264648438	-890.3907470703127	-419.400604248047	775.7155761718752	-1148.209350585938	-404.3569946289064	785.7678833007815	-934.9234619140627	-574.5543823242189	848.8884277343752	-1028.853881835938	-586.4852294921876	820.2144165039065	-1056.837890625	-582.9533081054689	817.7642822265627	-1000.254638671875	-431.5161743164064	642.9726562500001	-1220.932373046875	-354.6925659179688	608.1762084960939	-1227.018798828125	-318.9258728027344	640.7319335937501	-1213.13330078125	-338.0070800781251	549.4807739257814	-1217.4775390625	-232.1970367431641	435.6207275390626	-1193.445678710938	-206.2726745605469	452.496795654297	-1083.02197265625	-225.4036560058594	309.5992126464844	-1093.567016601563	-270.5545959472657	253.5897521972657	-1144.031494140625	-240.1300048828126	255.0221557617188	-1107.785400390625	-283.2410278320313	202.7783813476563	-1059.261108398438	-384.6127929687501	99.78372192382815	-1084.8935546875	-349.0618896484376	125.7589263916016	-1009.102844238281	-441.5639648437501	95.62248992919923	-1028.347900390625	-238.9082641601563	62.22036361694337	-1011.433654785156	-233.1528472900391	52.96253585815431	-1049.057739257813	-257.4937133789063	39.72528839111329	-1097.013427734375	-329.0963439941407	595.8504638671876	-859.173278808594	-262.5411987304688	593.9066162109376	-869.0288085937502	-246.9364624023438	621.2897949218751	-884.0274658203127	-217.0430603027344	525.0592041015626	-882.3582763671877	-172.0045166015625	488.0813293457032	-888.144470214844	-162.4485626220703	491.0054321289064	-1005.229187011719	-43.92175292968751	427.8093566894532	-911.1870117187502	-28.3766098022461	325.6263122558594	-874.5905761718752	2.793360471725464	356.6727905273438	-892.0244750976565	42.50894165039063	332.4530639648438	-926.441589355469	112.1939315795899	194.7471008300782	-884.5079345703127	107.300048828125	213.0269622802735	-968.7998657226565	97.65312957763675	129.3365478515625	-918.763610839844	230.2872467041016	276.6701049804688	-968.8248291015627	231.1948547363282	294.4671936035157	-926.9299926757815	233.4901275634766	268.8477478027344	-871.2559814453127	
801	4	-259.2585144042969	1436.2861328125	-1058.80322265625	-393.2776184082032	1363.639770507813	-1162.3505859375	-387.2023010253907	1369.915893554688	-1010.462768554688	-443.2578125000001	1257.7265625	-1073.769409179688	-544.9483642578126	963.8577880859377	-1041.445068359375	-323.6422424316407	1169.318603515625	-1080.231323242188	-375.9696960449219	1203.47412109375	-1235.355834960938	-231.5096130371094	1164.52880859375	-1307.031372070313	-201.2028961181641	1184.739990234375	-1274.193481445313	-165.3183746337891	1162.99658203125	-1319.447875976563	-114.1384048461914	1147.167114257813	-1329.20947265625	-103.9923934936524	1088.15576171875	-1277.301391601563	133.1300506591797	1183.389404296875	-1288.318115234375	127.1997985839844	1181.76318359375	-1352.936157226563	214.8166656494141	1204.482299804688	-1293.544189453125	-350.5985412597657	1214.127563476563	-927.0030517578127	-212.5652770996094	1166.342895507813	-840.5775146484377	-183.6083679199219	1196.448974609375	-866.0213012695315	-142.5533599853516	1159.455688476563	-839.9438476562502	-76.58095550537111	1162.66796875	-848.4627685546877	-74.26750946044923	1112.495849609375	-903.6361083984377	166.1585845947266	1176.634033203125	-900.5450439453127	158.0014801025391	1174.77880859375	-834.9876098632815	240.3418273925782	1194.051025390625	-889.9319458007815	-419.4336242675782	775.194030761719	-1148.116821289063	-404.074188232422	785.323913574219	-934.8757934570315	-574.6891479492189	848.3566894531252	-1028.804809570313	-586.5558471679689	819.533874511719	-1056.76953125	-582.8999633789064	817.297058105469	-1000.288757324219	-431.462127685547	642.5662231445314	-1220.911865234375	-354.5647888183594	607.9300537109376	-1226.984375	-318.8502197265626	640.4666748046876	-1212.97900390625	-337.8708496093751	549.2910156250001	-1217.397705078125	-231.9228668212891	435.5399475097657	-1193.413330078125	-205.8248138427735	452.8240661621095	-1083.019287109375	-225.1407318115235	309.4436645507813	-1093.546752929688	-270.3085632324219	253.5108337402344	-1143.866577148438	-239.9705352783204	254.937728881836	-1107.836303710938	-283.1585998535157	202.6702423095704	-1059.203857421875	-384.4959106445314	99.72097015380862	-1084.86376953125	-349.0270996093751	125.7954635620117	-1009.085205078125	-441.5486755371095	95.60367584228517	-1028.3349609375	-238.9236907958985	62.22573852539064	-1011.415649414063	-233.198471069336	52.96279525756837	-1049.114990234375	-257.3122558593751	39.5674057006836	-1096.959838867188	-329.1772766113282	594.9707641601564	-859.131774902344	-262.9008789062501	592.9642333984376	-868.9591064453127	-247.0578308105469	620.3289184570314	-883.878845214844	-217.2044830322266	524.2618408203126	-882.380310058594	-172.1969299316407	487.2364807128907	-888.1123046875002	-162.4473114013672	490.1819458007814	-1005.165344238281	-44.03662490844727	427.0846252441407	-911.1933593750002	-28.4595127105713	324.8771667480469	-874.688659667969	2.783259868621827	355.9540100097657	-892.0780029296877	42.37827301025391	331.7084350585938	-926.416442871094	112.2654418945313	194.0029907226563	-884.5483398437502	107.8254776000977	212.202133178711	-968.760925292969	97.70037078857425	128.5853118896485	-918.937927246094	230.2832641601563	276.0081176757813	-969.0986938476565	231.2251586914063	293.6722106933594	-927.201843261719	233.649887084961	268.5687561035157	-870.9136962890627	
